<?xml version="1.0" encoding="utf-8"?>
<!-- Generator: Adobe Illustrator 25.0.1, SVG Export Plug-In . SVG Version: 6.00 Build 0)  -->
<svg version="1.1" id="Calque_1" xmlns="http://www.w3.org/2000/svg" xmlns:xlink="http://www.w3.org/1999/xlink" x="0px" y="0px"
	 viewBox="0 0 841.89 595.28" style="enable-background:new 0 0 841.89 595.28;" xml:space="preserve">
<style type="text/css">
	.st0{fill:url(#SVGID_1_);}
	.st1{fill:url(#SVGID_2_);}
	.st2{fill:url(#SVGID_3_);}
	.st3{fill:none;stroke:#000000;stroke-width:16;stroke-miterlimit:10;}
	.st4{stroke:#000000;stroke-width:16;stroke-miterlimit:10;}
</style>
<g>
	<g>
		<g>
			<linearGradient id="SVGID_1_" gradientUnits="userSpaceOnUse" x1="684.5181" y1="289.468" x2="714.8958" y2="289.468">
				<stop  offset="0" style="stop-color:#7FB129"/>
				<stop  offset="1" style="stop-color:#CBD22A"/>
			</linearGradient>
			<path class="st0" d="M699.71,352.04L699.71,352.04c-8.35,0-15.19-6.83-15.19-15.19v-94.76c0-8.35,6.83-15.19,15.19-15.19h0
				c8.35,0,15.19,6.83,15.19,15.19v94.76C714.9,345.2,708.06,352.04,699.71,352.04z"/>
			<linearGradient id="SVGID_2_" gradientUnits="userSpaceOnUse" x1="642.1087" y1="313.1534" x2="672.9564" y2="313.1534">
				<stop  offset="0" style="stop-color:#DB5613"/>
				<stop  offset="1" style="stop-color:#E88E28"/>
			</linearGradient>
			<path class="st1" d="M657.53,352.04L657.53,352.04c-8.48,0-15.42-6.94-15.42-15.42v-46.92c0-8.48,6.94-15.42,15.42-15.42l0,0
				c8.48,0,15.42,6.94,15.42,15.42v46.92C672.96,345.1,666.02,352.04,657.53,352.04z"/>
			<linearGradient id="SVGID_3_" gradientUnits="userSpaceOnUse" x1="600.3412" y1="337.311" x2="629.7936" y2="337.311">
				<stop  offset="0" style="stop-color:#EC9F02"/>
				<stop  offset="1" style="stop-color:#F3CC24"/>
			</linearGradient>
			<circle class="st2" cx="615.07" cy="337.31" r="14.73"/>
		</g>
		<g>
			<line class="st3" x1="311.48" y1="349.58" x2="209.82" y2="349.58"/>
			<g>
				<path class="st3" d="M125.88,352.03c0,0,63.92-182.61,99.34-178.2s86.25,134.75,86.25,134.75"/>
				<path class="st3" d="M311.48,173.75v175.82c0,0,166.28,24.35,167.86-80.43C479.34,269.15,496.67,145.3,311.48,173.75z"/>
				<path class="st3" d="M477.45,285.01c0,0,41.12,67.91,69.92,67.02s115.2-162.87,115.2-162.87"/>
				<polygon class="st4" points="630.65,173.75 694.48,204.57 685.02,144.68 				"/>
			</g>
		</g>
	</g>
	<g>
		<path d="M124.63,378.61c0-3.82,1.1-5.73,3.29-5.73c2.68,0,5,0.64,6.96,1.92c3.99,2.54,5.98,6.68,5.98,12.43
			c0,4.44-1.78,9.17-5.34,14.18c2.48,3.5,3.98,5.57,4.51,6.2c0.53,0.63,0.99,1.28,1.39,1.94s0.63,1.08,0.68,1.24
			c0.06,0.16,0.16,0.61,0.3,1.35c0.14,0.74,0.23,1.38,0.26,1.92c0.03,1.4,0.16,3.05,0.41,4.96c0.24,1.91,0.41,2.98,0.49,3.21
			c0.09,0.23-0.02,0.96-0.32,2.2c-0.3,1.24-0.51,2.07-0.62,2.48c-0.11,0.41-0.27,0.98-0.47,1.71c-0.2,0.73-0.37,1.27-0.51,1.62
			c-0.14,0.36-0.34,0.83-0.6,1.41c-0.26,0.58-0.51,1.03-0.77,1.33c-0.26,0.3-0.57,0.68-0.94,1.15c-0.37,0.47-0.77,0.85-1.2,1.15
			s-0.91,0.65-1.45,1.05c-1.79,1.25-3.4,2.06-4.81,2.41c-1.41,0.36-2.2,0.53-2.37,0.53h-0.43c-1.6,0-2.61-0.11-3.03-0.34
			c-0.83-0.46-1.24-1.07-1.24-1.84l0.43-21.53l-0.6-35.55V378.61z M130.57,377.84c-0.8,0-1.2,1.05-1.2,3.14s0.06,5.38,0.17,9.87
			c0.11,4.49,0.17,7.74,0.17,9.76c2.08-0.48,3.86-3.05,5.34-7.69c0.8-2.48,1.31-3.97,1.54-4.49v-3.12c0-1.71-0.61-3.38-1.82-5.02
			C133.57,378.66,132.16,377.84,130.57,377.84z M132.66,405.01v-0.04h-2.99c0.26,7.23,0.38,17.15,0.38,29.74
			c2.82-0.46,5.04-1.8,6.67-4.04c1.62-2.24,2.44-4.86,2.44-7.88C139.16,412.93,136.99,407,132.66,405.01z"/>
		<path d="M174.45,413.51l0.26,5.38v1.32l-0.21,0.94l0.04,5.08c0,5.13-0.73,8.76-2.18,10.89c-1.37,1.99-3.49,2.99-6.37,2.99
			c-3.5,0-6.17-1.27-7.99-3.8c-1.6-2.16-2.76-5.07-3.5-8.72c-0.94-4.39-1.69-7.49-2.26-9.31c-0.06-0.14-0.38-6.67-0.96-19.57
			c-0.58-12.9-0.88-20.07-0.88-21.49c-0.43-0.48-0.64-1.08-0.64-1.79c0-0.71,0.25-1.34,0.75-1.88c0.5-0.54,1.09-0.81,1.77-0.81
			c2.11,0,3.16,2.08,3.16,6.24l0.81,30.42c0.34,0.77,0.63,2.32,0.88,4.66c0.24,2.34,0.36,4.15,0.36,5.45c0,1.3,0.21,2.89,0.62,4.79
			c0.41,1.89,0.98,3.81,1.69,5.75c0.71,1.94,1.67,3.59,2.88,4.96c1.21,1.37,2.5,2.05,3.87,2.05c2.22,0,3.39-2.01,3.5-6.02
			c0.03-0.51,0.04-1.12,0.04-1.84v-39.26c0-1.65-0.31-4.15-0.94-7.5s-0.94-5.61-0.94-6.79c0-1.18,0.29-1.99,0.88-2.43
			c0.58-0.44,1.25-0.66,1.99-0.66l2.65,2.05v1.45l-0.77,5.34c0,3.39,0.21,8.35,0.64,14.89c0.43,6.54,0.65,11.39,0.68,14.55v0.13
			L174.45,413.51z"/>
		<path d="M201.88,436.58c0,1.91-0.7,2.86-2.09,2.86c-1.08,0-2.14-0.78-3.16-2.35v-0.3c-0.14-2.33-0.86-5.54-2.16-9.61
			c-1.3-4.07-2.1-6.82-2.41-8.25c-0.31-1.42-0.82-4.11-1.52-8.05c-0.7-3.94-1.3-6.96-1.82-9.04v34.48c0,1.85-0.95,2.78-2.86,2.78
			c-0.68,0-1.27-0.24-1.75-0.71s-0.73-1.05-0.73-1.73v-0.68l0.6-51.31v-10.77c0-0.68,0.14-1.17,0.43-1.45
			c0.28-0.28,1.11-0.43,2.48-0.43s2.76,0.45,4.19,1.35c1.42,0.9,2.56,2.06,3.42,3.48c1.77,2.93,2.65,6.17,2.65,9.7
			c0,2.85-0.71,6.11-2.14,9.78c-0.17,0.4-0.51,1.24-1.03,2.52c-0.51,1.28-0.81,2.04-0.9,2.26c0.03,2.28,0.41,5.12,1.13,8.52
			c0.73,3.4,1.4,6.15,2.03,8.25s1.67,5.36,3.14,9.81c1.47,4.44,2.3,6.98,2.5,7.6V436.58z M188.46,376.04l-0.47,17.86
			c0,1.79,0.03,3.13,0.09,4.02c0.97-0.94,1.91-2.06,2.82-3.38l1.28-7.56c0-3.02-0.4-5.55-1.2-7.61
			C190.18,377.32,189.34,376.21,188.46,376.04z"/>
		<path d="M218.15,406.51l-2.18-0.09c-0.68,0-1.2,0.21-1.54,0.64v27c2.99-0.17,4.53-0.26,4.61-0.26c3.25,0,4.87,0.77,4.87,2.31v0.3
			c-0.4,0.8-1.08,1.41-2.03,1.84c-0.95,0.43-1.79,0.67-2.5,0.73c-0.71,0.06-1.65,0.09-2.82,0.09h-2.73c-2.22,0-3.59-0.43-4.1-1.28
			c-0.23-0.4-0.34-0.93-0.34-1.58v-63.15l7.56-0.77c0.88,0,1.77,0.26,2.67,0.79c0.9,0.53,1.35,1.22,1.35,2.07
			c0,1.74-1.32,2.61-3.97,2.61l-2.52-0.09c-0.43,0-0.74,0.02-0.94,0.04l0.68,14.44c0,1.17-0.07,2.87-0.21,5.11
			c-0.14,2.24-0.21,3.87-0.21,4.89c0.31-0.06,0.74-0.16,1.28-0.3c1.2-0.31,2.13-0.47,2.8-0.47c0.67,0,1.27,0.24,1.79,0.73
			c0.53,0.49,0.79,1.07,0.79,1.75s-0.21,1.3-0.64,1.84C219.39,406.23,218.84,406.51,218.15,406.51z"/>
		<path d="M247.21,373.22c1.14,8.18,2.33,18.81,3.59,31.92c1.25,13.1,1.88,23.24,1.88,30.42c0,1.96-0.95,2.95-2.86,2.95
			s-2.86-0.75-2.86-2.26v-11.41c-0.83-0.57-2.3-1.05-4.42-1.45c-2.12-0.4-4.01-0.66-5.66-0.77c-0.71,1.2-1.26,3.64-1.65,7.33
			c-0.38,3.69-1,6.23-1.86,7.63c-2.82,0-4.37-0.58-4.66-1.75c1.31-1.91,3.97-14.07,7.99-36.49c1.57-8.86,2.51-14,2.82-15.42
			c1.57-7.52,3.26-11.28,5.08-11.28c1.08,0,1.95,0.26,2.61,0.77V373.22z M246.86,419.45c-0.09-1.05-0.37-4.2-0.85-9.44
			c-1.28-13.39-1.92-20.87-1.92-22.45c0-1.58,0.01-2.44,0.04-2.58c-0.34,0.4-1.16,4.53-2.46,12.39c-1.3,7.86-2.03,12.13-2.2,12.82
			s-0.44,1.62-0.81,2.82c-0.77,2.48-1.18,4.39-1.24,5.72c2.42,0.66,4.43,0.98,6.02,0.98C245.04,419.71,246.18,419.62,246.86,419.45z
			"/>
		<path d="M284.12,413.51l0.26,5.38v1.32l-0.21,0.94l0.04,5.08c0,5.13-0.73,8.76-2.18,10.89c-1.37,1.99-3.49,2.99-6.37,2.99
			c-3.5,0-6.17-1.27-7.99-3.8c-1.6-2.16-2.76-5.07-3.5-8.72c-0.94-4.39-1.69-7.49-2.26-9.31c-0.06-0.14-0.38-6.67-0.96-19.57
			c-0.58-12.9-0.88-20.07-0.88-21.49c-0.43-0.48-0.64-1.08-0.64-1.79c0-0.71,0.25-1.34,0.75-1.88c0.5-0.54,1.09-0.81,1.77-0.81
			c2.11,0,3.16,2.08,3.16,6.24l0.81,30.42c0.34,0.77,0.63,2.32,0.88,4.66c0.24,2.34,0.36,4.15,0.36,5.45c0,1.3,0.21,2.89,0.62,4.79
			c0.41,1.89,0.98,3.81,1.69,5.75c0.71,1.94,1.67,3.59,2.88,4.96c1.21,1.37,2.5,2.05,3.87,2.05c2.22,0,3.39-2.01,3.5-6.02
			c0.03-0.51,0.04-1.12,0.04-1.84v-39.26c0-1.65-0.31-4.15-0.94-7.5s-0.94-5.61-0.94-6.79c0-1.18,0.29-1.99,0.88-2.43
			c0.58-0.44,1.25-0.66,1.99-0.66l2.65,2.05v1.45l-0.77,5.34c0,3.39,0.21,8.35,0.64,14.89c0.43,6.54,0.65,11.39,0.68,14.55v0.13
			L284.12,413.51z"/>
		<path d="M303.52,387.75l-0.17,11.28c0,5.33,0.46,9.8,1.37,13.42v0.04c-0.4,1.85-0.6,4.07-0.6,6.67l0.73,15.72
			c0,2.85-0.84,4.27-2.52,4.27c-0.97,0-1.68-0.46-2.14-1.37c-0.46-0.91-0.68-1.92-0.68-3.03l0.68-13.97c0-3.02-0.2-7.56-0.6-13.63
			c-0.4-6.07-0.6-10.61-0.6-13.63l0.13-7.65c0-4.19-0.27-6.91-0.81-8.16l-4.74,0.47c-0.74,0-1.4-0.22-1.99-0.66
			c-0.58-0.44-0.88-1.01-0.88-1.71c0-0.7,0.7-1.29,2.09-1.79c1.4-0.5,3.1-0.86,5.13-1.09c3.5-0.4,6.45-0.6,8.84-0.6
			c0.71,0,1.36,0.23,1.94,0.71c0.58,0.47,0.88,1.06,0.88,1.77c0,0.71-0.26,1.28-0.77,1.69c-0.51,0.41-1.14,0.62-1.88,0.62
			l-3.12-0.17c-0.4,0-0.7,0.01-0.9,0.04C303.32,380.34,303.52,383.93,303.52,387.75z"/>
		<path d="M324.88,433.64l1.79-0.04c2.36,0,3.55,0.48,3.55,1.45c0.23,0.97,0.12,1.66-0.32,2.07c-0.44,0.41-1.06,0.62-1.86,0.62
			h-10.98c-1.68,0-2.52-0.67-2.52-2.01s0.88-2.01,2.65-2.01l2.69,0.04c0.28,0,0.43-1.45,0.43-4.36s-0.27-8.85-0.81-17.84
			c-0.54-8.99-0.81-15.73-0.81-20.23l0.17-8.93c0-1.88-0.07-3.5-0.21-4.87c-0.77,0.26-1.45,0.38-2.05,0.38
			c-1.37,0-2.05-0.7-2.05-2.09c0-0.71,0.44-1.33,1.32-1.86c0.88-0.53,1.98-0.9,3.29-1.13c2.45-0.43,4.27-0.64,5.45-0.64
			c1.18,0,2.03,0.23,2.54,0.7c0.51,0.47,0.77,1.03,0.77,1.67c0,0.64-0.19,1.2-0.58,1.67c-0.38,0.47-0.88,0.71-1.47,0.71l-1.54-0.04
			c-0.57,0-0.99,0.12-1.26,0.36c-0.27,0.24-0.41,0.72-0.41,1.43c0,5.7,0.37,14.23,1.11,25.59c0.74,11.36,1.11,19.9,1.11,25.59
			V433.64z"/>
		<path d="M357.86,445.77c2.16,0,3.25,0.71,3.25,2.14c0,1.79-1.3,2.69-3.89,2.69c-1,0-2.21-0.41-3.63-1.24v-0.04
			c-1.54-0.74-2.59-2.04-3.16-3.89c-0.48-1.57-0.83-3.12-1.03-4.66s-0.36-2.56-0.47-3.08h-3.46c-5.41-3.65-8.42-9.71-9.01-18.2
			c-0.11-1.6-0.17-3.42-0.17-5.47l0.43-14.27l-0.09-6.15c0-14.92,3.15-22.39,9.44-22.39c2.31,0,4.46,0.83,6.45,2.5
			c1.99,1.67,3.26,3.67,3.8,6c1,4.42,1.64,9.01,1.92,13.78c0.28,4.77,0.43,8.91,0.43,12.41v6.54c0,7.29-0.29,11.83-0.85,13.63
			c-1.14,3.7-2.63,6.86-4.49,9.49c0.06,0.23,0.16,0.8,0.3,1.73c0.14,0.93,0.31,1.82,0.49,2.69c0.19,0.87,0.41,1.76,0.66,2.67
			c0.57,2.08,1.31,3.12,2.22,3.12H357.86z M350.34,433.98c2.36-2.25,3.55-5.38,3.55-9.4v-19.91c0-2.65-0.21-5.82-0.62-9.51
			c-0.41-3.69-0.66-5.93-0.73-6.73c-0.07-0.8-0.14-1.55-0.19-2.26c-0.06-0.71-0.1-1.28-0.13-1.71c-0.03-0.43-0.09-0.98-0.17-1.67
			s-0.18-1.23-0.28-1.64c-0.1-0.41-0.24-0.9-0.43-1.47c-0.19-0.57-0.39-1.03-0.62-1.37c-0.23-0.34-0.51-0.71-0.85-1.09
			s-0.73-0.68-1.15-0.88c-1-0.51-2.12-0.77-3.38-0.77c-1.03,0-1.89,1.5-2.58,4.51c-0.7,3.01-1.17,6.77-1.43,11.3
			c-0.48,7.92-0.73,13.5-0.73,16.75s0.03,5.65,0.09,7.22s0.24,3.6,0.56,6.09c0.31,2.49,0.72,4.66,1.22,6.49
			c0.5,1.84,1.26,3.47,2.29,4.89c1.03,1.42,2.22,2.19,3.59,2.31v-0.08c0.43-0.74,1.1-1.11,2.01-1.11V433.98z"/>
		<path d="M391.1,413.51l0.26,5.38v1.32l-0.21,0.94l0.04,5.08c0,5.13-0.73,8.76-2.18,10.89c-1.37,1.99-3.49,2.99-6.37,2.99
			c-3.5,0-6.17-1.27-7.99-3.8c-1.6-2.16-2.76-5.07-3.5-8.72c-0.94-4.39-1.69-7.49-2.26-9.31c-0.06-0.14-0.38-6.67-0.96-19.57
			c-0.58-12.9-0.88-20.07-0.88-21.49c-0.43-0.48-0.64-1.08-0.64-1.79c0-0.71,0.25-1.34,0.75-1.88c0.5-0.54,1.09-0.81,1.77-0.81
			c2.11,0,3.16,2.08,3.16,6.24l0.81,30.42c0.34,0.77,0.63,2.32,0.88,4.66c0.24,2.34,0.36,4.15,0.36,5.45c0,1.3,0.21,2.89,0.62,4.79
			c0.41,1.89,0.98,3.81,1.69,5.75c0.71,1.94,1.67,3.59,2.88,4.96c1.21,1.37,2.5,2.05,3.87,2.05c2.22,0,3.39-2.01,3.5-6.02
			c0.03-0.51,0.04-1.12,0.04-1.84v-39.26c0-1.65-0.31-4.15-0.94-7.5s-0.94-5.61-0.94-6.79c0-1.18,0.29-1.99,0.88-2.43
			c0.58-0.44,1.25-0.66,1.99-0.66l2.65,2.05v1.45l-0.77,5.34c0,3.39,0.21,8.35,0.64,14.89c0.43,6.54,0.65,11.39,0.68,14.55v0.13
			L391.1,413.51z"/>
		<path d="M409.13,406.51l-2.18-0.09c-0.68,0-1.2,0.21-1.54,0.64v27c2.99-0.17,4.53-0.26,4.61-0.26c3.25,0,4.87,0.77,4.87,2.31v0.3
			c-0.4,0.8-1.08,1.41-2.03,1.84c-0.95,0.43-1.79,0.67-2.5,0.73c-0.71,0.06-1.65,0.09-2.82,0.09h-2.73c-2.22,0-3.59-0.43-4.1-1.28
			c-0.23-0.4-0.34-0.93-0.34-1.58v-63.15l7.56-0.77c0.88,0,1.77,0.26,2.67,0.79c0.9,0.53,1.35,1.22,1.35,2.07
			c0,1.74-1.32,2.61-3.97,2.61l-2.52-0.09c-0.43,0-0.74,0.02-0.94,0.04l0.68,14.44c0,1.17-0.07,2.87-0.21,5.11
			c-0.14,2.24-0.21,3.87-0.21,4.89c0.31-0.06,0.74-0.16,1.28-0.3c1.2-0.31,2.13-0.47,2.8-0.47c0.67,0,1.27,0.24,1.79,0.73
			c0.53,0.49,0.79,1.07,0.79,1.75s-0.21,1.3-0.64,1.84C410.37,406.23,409.82,406.51,409.13,406.51z"/>
		<path d="M451,370.19l-0.26,4.44c0,0.6,0.07,1.23,0.21,1.88c-0.48,1.08-1.15,2.93-1.99,5.55c-0.84,2.62-1.46,4.31-1.86,5.08
			c-0.4,0.77-0.8,1.45-1.2,2.05c-0.91,1.37-1.37,2.35-1.37,2.95c0,2.79,1.08,7.8,3.23,15.02c2.15,7.22,4.01,11.73,5.58,13.52
			c1.77-4.19,2.65-9.34,2.65-15.47v-0.38c-1,0-1.72-0.5-2.18-1.5v-2.22c1.45,0,3.35-0.11,5.68-0.32c2.34-0.21,3.99-0.48,4.96-0.79
			c1.65,0.34,2.48,1.11,2.48,2.31c0,1.6-1.61,2.39-4.83,2.39h-2.18c0,1.74-0.07,3.7-0.21,5.9c0.6-0.06,0.32,1.78-0.83,5.51
			c-1.15,3.73-2,6.15-2.54,7.26c1.74,1.79,3.59,2.69,5.55,2.69l3.55-0.26l1.62,1.32c0,1.17-0.41,1.94-1.22,2.33
			c-0.81,0.38-1.89,0.58-3.23,0.58c-2.71,0-5.51-1.1-8.42-3.29c-3.13,2.22-6.03,3.33-8.69,3.33c-2.66,0-4.92-0.75-6.77-2.24
			c-1.85-1.5-3.28-3.34-4.27-5.53s-1.5-4.44-1.5-6.75c0-2.31,0.14-4.46,0.43-6.45c0.28-1.99,0.81-4.04,1.58-6.15
			c1.08-2.96,2.96-7.12,5.64-12.48l-0.6-12v-7.26c0-2.28,0.38-3.93,1.15-4.96s1.79-1.54,3.08-1.54s2.73,0.51,4.34,1.54
			C450.2,367.28,451,368.59,451,370.19z M441.47,397.15c-2.99,4.9-4.49,10.58-4.49,17.05c0,4.47,1.18,7.89,3.55,10.25
			c1.34,1.34,2.99,2.01,4.96,2.01c0.88,0,1.99-0.24,3.31-0.73c1.32-0.48,2.27-1.03,2.84-1.62c-0.2-0.29-0.81-0.97-1.84-2.05
			c-1.03-1.08-2.05-2.62-3.08-4.61c-1.03-1.99-1.88-4.33-2.56-7.01C443.23,406.85,442.33,402.42,441.47,397.15z M443.87,375.7
			l0.09,7.9v0.98c0.77-1.65,1.51-3.63,2.22-5.94c0.71-2.31,1.07-4.14,1.07-5.51c0-2.76-0.68-4.17-2.05-4.23
			c-0.4,0.34-0.84,1.05-1.32,2.14V375.7z"/>
		<path d="M484.8,437.52c0-1.57,0.66-2.35,1.96-2.35c0.66,0,1.52,0.22,2.58,0.66c1.07,0.44,1.99,0.66,2.78,0.66s1.63-0.5,2.54-1.5
			c0.91-1,1.62-2.24,2.14-3.72c1.05-2.99,1.58-5.71,1.58-8.16c0-2.45-0.43-5.07-1.28-7.86c-0.85-2.79-1.9-5.41-3.14-7.86
			c-1.24-2.45-2.47-4.9-3.7-7.35c-2.93-5.87-4.4-11.19-4.4-15.98c0-4.56,1.44-8.13,4.31-10.72c1.54-1.37,3.35-2.05,5.43-2.05
			c1.05,0,2.08,0.29,3.08,0.88c1,0.58,1.69,1.35,2.09,2.29v1.88c-2.45,0-4.09-0.28-4.91-0.85c-1.08,0.11-2.02,0.63-2.82,1.54
			c-1.45,1.71-2.18,3.68-2.18,5.92s0.33,4.54,0.98,6.92c0.65,2.38,1.44,4.61,2.35,6.71c0.91,2.09,1.83,4.04,2.76,5.83
			c0.92,1.79,1.72,3.26,2.37,4.4c0.66,1.14,0.98,1.74,0.98,1.79v0.68c0.2,0.74,0.54,1.91,1.03,3.5c0.48,1.6,0.87,2.86,1.15,3.8
			c0.71,2.56,1.07,4.88,1.07,6.96s-0.25,4.06-0.75,5.94c-0.5,1.88-1.21,3.65-2.14,5.32s-2.18,3.03-3.76,4.08s-3.05,1.58-4.42,1.58
			s-2.52-0.07-3.46-0.21c-0.94-0.14-1.88-0.46-2.82-0.94C485.27,438.83,484.8,438.23,484.8,437.52z"/>
		<path d="M532.48,412.14l-0.77,11.07v0.38c-0.37,1.62-0.56,3.38-0.56,5.25s-0.32,3.7-0.96,5.45c-0.64,1.75-1.62,3.3-2.95,4.66
			s-2.77,2.03-4.34,2.03s-3-0.54-4.29-1.62s-2.36-2.47-3.2-4.17c-0.84-1.69-1.59-3.72-2.24-6.07s-1.15-4.64-1.5-6.88
			c-0.34-2.24-0.63-4.59-0.85-7.07c-0.31-3.79-0.47-6.9-0.47-9.33c0-2.44,0.04-4.44,0.13-6c0.11-2.88,0.24-5.43,0.38-7.67
			c0.14-2.24,0.23-3.95,0.26-5.15s0.06-2.21,0.09-3.03c0.03-0.83,0.11-1.84,0.26-3.05c0.14-1.21,0.31-2.24,0.51-3.1
			c0.2-0.85,0.51-1.75,0.92-2.69c0.41-0.94,0.9-1.71,1.47-2.31c1.31-1.34,2.78-2.01,4.4-2.01c1.62,0,2.92,0.16,3.89,0.47
			c0.97,0.31,1.79,0.72,2.46,1.22s1.28,1.15,1.84,1.96c0.55,0.81,1.01,1.6,1.37,2.37c0.36,0.77,0.68,1.7,0.96,2.78
			c0.37,1.37,0.74,3.32,1.11,5.85C531.78,395.45,532.48,404.34,532.48,412.14z M524.79,380.12c-0.57-1.5-1.27-2.65-2.11-3.46
			c-0.84-0.81-1.65-1.22-2.44-1.22c-0.78,0-1.42,0.2-1.9,0.6c-0.48,0.4-0.9,1-1.24,1.79c-0.34,0.8-0.66,1.65-0.94,2.54
			c-0.29,0.9-0.52,1.99-0.71,3.29c-0.19,1.3-0.35,2.47-0.49,3.53c-0.14,1.05-0.26,2.31-0.34,3.76c-0.09,1.45-0.16,2.63-0.21,3.55
			c-0.06,0.91-0.09,2.01-0.11,3.29c-0.01,1.28-0.02,2.14-0.02,2.56v1.79c0,4.7,0.44,10.08,1.32,16.15
			c1.77,11.93,4.26,17.9,7.48,17.9c1.14,0,2.11-1.09,2.91-3.27c0.8-2.18,1.35-4.91,1.67-8.18c0.57-5.55,0.85-9.58,0.85-12.07
			c0-2.49-0.01-4.28-0.02-5.36c-0.01-1.08-0.06-2.66-0.13-4.72s-0.19-4-0.36-5.81s-0.38-3.81-0.64-6c-0.26-2.19-0.61-4.14-1.05-5.85
			S525.36,381.62,524.79,380.12z"/>
		<path d="M545.08,373.95l0.9,31.49c0,1.03-0.06,1.95-0.17,2.78v0.38c0.08,1.68,0.21,4.07,0.38,7.18
			c0.43,6.92,0.64,12.13,0.64,15.64v2.78h6.24c0.97,0.57,1.52,0.98,1.67,1.24c0.14,0.26,0.21,0.62,0.21,1.09s-0.21,0.95-0.64,1.45
			c-0.43,0.5-0.87,0.75-1.32,0.75c-0.46,0-0.98-0.1-1.58-0.3c-0.48,0.11-1.04,0.17-1.67,0.17l-2.82-0.13
			c-0.6,0.71-1.35,1.07-2.24,1.07c-0.9,0-1.65-0.28-2.26-0.83c-0.61-0.56-0.92-1.2-0.92-1.94l0.56-3.85
			c0-6.64-0.29-16.58-0.88-29.84c-0.58-13.26-0.88-23.21-0.88-29.84c0-0.54,0.21-0.97,0.64-1.3c0.43-0.33,0.96-0.49,1.6-0.49
			s1.22,0.24,1.75,0.73C544.82,372.64,545.08,373.24,545.08,373.95z"/>
		<path d="M584.82,413.51l0.26,5.38v1.32l-0.21,0.94l0.04,5.08c0,5.13-0.73,8.76-2.18,10.89c-1.37,1.99-3.49,2.99-6.37,2.99
			c-3.5,0-6.17-1.27-7.99-3.8c-1.6-2.16-2.76-5.07-3.5-8.72c-0.94-4.39-1.69-7.49-2.26-9.31c-0.06-0.14-0.38-6.67-0.96-19.57
			c-0.58-12.9-0.88-20.07-0.88-21.49c-0.43-0.48-0.64-1.08-0.64-1.79c0-0.71,0.25-1.34,0.75-1.88c0.5-0.54,1.09-0.81,1.77-0.81
			c2.11,0,3.16,2.08,3.16,6.24l0.81,30.42c0.34,0.77,0.63,2.32,0.88,4.66c0.24,2.34,0.36,4.15,0.36,5.45c0,1.3,0.21,2.89,0.62,4.79
			c0.41,1.89,0.98,3.81,1.69,5.75c0.71,1.94,1.67,3.59,2.88,4.96c1.21,1.37,2.5,2.05,3.87,2.05c2.22,0,3.39-2.01,3.5-6.02
			c0.03-0.51,0.04-1.12,0.04-1.84v-39.26c0-1.65-0.31-4.15-0.94-7.5c-0.63-3.35-0.94-5.61-0.94-6.79c0-1.18,0.29-1.99,0.88-2.43
			c0.58-0.44,1.25-0.66,1.99-0.66l2.65,2.05v1.45l-0.77,5.34c0,3.39,0.21,8.35,0.64,14.89c0.43,6.54,0.65,11.39,0.68,14.55v0.13
			L584.82,413.51z"/>
		<path d="M604.21,387.75l-0.17,11.28c0,5.33,0.46,9.8,1.37,13.42v0.04c-0.4,1.85-0.6,4.07-0.6,6.67l0.73,15.72
			c0,2.85-0.84,4.27-2.52,4.27c-0.97,0-1.68-0.46-2.14-1.37c-0.46-0.91-0.68-1.92-0.68-3.03l0.68-13.97c0-3.02-0.2-7.56-0.6-13.63
			c-0.4-6.07-0.6-10.61-0.6-13.63l0.13-7.65c0-4.19-0.27-6.91-0.81-8.16l-4.74,0.47c-0.74,0-1.4-0.22-1.99-0.66
			c-0.58-0.44-0.88-1.01-0.88-1.71c0-0.7,0.7-1.29,2.09-1.79c1.4-0.5,3.1-0.86,5.13-1.09c3.5-0.4,6.45-0.6,8.84-0.6
			c0.71,0,1.36,0.23,1.94,0.71c0.58,0.47,0.88,1.06,0.88,1.77c0,0.71-0.26,1.28-0.77,1.69c-0.51,0.41-1.14,0.62-1.88,0.62
			l-3.12-0.17c-0.4,0-0.7,0.01-0.9,0.04C604.01,380.34,604.21,383.93,604.21,387.75z"/>
		<path d="M625.57,433.64l1.79-0.04c2.36,0,3.55,0.48,3.55,1.45c0.23,0.97,0.12,1.66-0.32,2.07c-0.44,0.41-1.06,0.62-1.86,0.62
			h-10.98c-1.68,0-2.52-0.67-2.52-2.01s0.88-2.01,2.65-2.01l2.69,0.04c0.28,0,0.43-1.45,0.43-4.36s-0.27-8.85-0.81-17.84
			s-0.81-15.73-0.81-20.23l0.17-8.93c0-1.88-0.07-3.5-0.21-4.87c-0.77,0.26-1.45,0.38-2.05,0.38c-1.37,0-2.05-0.7-2.05-2.09
			c0-0.71,0.44-1.33,1.33-1.86c0.88-0.53,1.98-0.9,3.29-1.13c2.45-0.43,4.27-0.64,5.45-0.64c1.18,0,2.03,0.23,2.54,0.7
			c0.51,0.47,0.77,1.03,0.77,1.67c0,0.64-0.19,1.2-0.58,1.67c-0.38,0.47-0.88,0.71-1.47,0.71l-1.54-0.04
			c-0.57,0-0.99,0.12-1.26,0.36c-0.27,0.24-0.41,0.72-0.41,1.43c0,5.7,0.37,14.23,1.11,25.59c0.74,11.36,1.11,19.9,1.11,25.59
			V433.64z"/>
		<path d="M659.07,412.14l-0.77,11.07v0.38c-0.37,1.62-0.56,3.38-0.56,5.25s-0.32,3.7-0.96,5.45c-0.64,1.75-1.62,3.3-2.95,4.66
			s-2.77,2.03-4.34,2.03s-3-0.54-4.29-1.62s-2.36-2.47-3.2-4.17c-0.84-1.69-1.59-3.72-2.24-6.07s-1.15-4.64-1.5-6.88
			c-0.34-2.24-0.63-4.59-0.85-7.07c-0.31-3.79-0.47-6.9-0.47-9.33c0-2.44,0.04-4.44,0.13-6c0.11-2.88,0.24-5.43,0.38-7.67
			c0.14-2.24,0.23-3.95,0.26-5.15s0.06-2.21,0.09-3.03c0.03-0.83,0.11-1.84,0.26-3.05c0.14-1.21,0.31-2.24,0.51-3.1
			s0.51-1.75,0.92-2.69c0.41-0.94,0.9-1.71,1.47-2.31c1.31-1.34,2.78-2.01,4.4-2.01c1.62,0,2.92,0.16,3.89,0.47
			c0.97,0.31,1.79,0.72,2.46,1.22s1.28,1.15,1.84,1.96c0.55,0.81,1.01,1.6,1.37,2.37c0.36,0.77,0.68,1.7,0.96,2.78
			c0.37,1.37,0.74,3.32,1.11,5.85C658.37,395.45,659.07,404.34,659.07,412.14z M651.38,380.12c-0.57-1.5-1.27-2.65-2.11-3.46
			c-0.84-0.81-1.65-1.22-2.44-1.22c-0.78,0-1.42,0.2-1.9,0.6c-0.48,0.4-0.9,1-1.24,1.79c-0.34,0.8-0.66,1.65-0.94,2.54
			c-0.29,0.9-0.52,1.99-0.71,3.29c-0.19,1.3-0.35,2.47-0.49,3.53c-0.14,1.05-0.26,2.31-0.34,3.76c-0.09,1.45-0.16,2.63-0.21,3.55
			c-0.06,0.91-0.09,2.01-0.11,3.29c-0.01,1.28-0.02,2.14-0.02,2.56v1.79c0,4.7,0.44,10.08,1.32,16.15
			c1.77,11.93,4.26,17.9,7.48,17.9c1.14,0,2.11-1.09,2.91-3.27c0.8-2.18,1.35-4.91,1.67-8.18c0.57-5.55,0.85-9.58,0.85-12.07
			c0-2.49-0.01-4.28-0.02-5.36c-0.01-1.08-0.06-2.66-0.13-4.72s-0.19-4-0.36-5.81s-0.38-3.81-0.64-6c-0.26-2.19-0.61-4.14-1.05-5.85
			S651.95,381.62,651.38,380.12z"/>
		<path d="M690.77,376.85l-0.34,32.34v26.75c0,1.4-0.57,2.41-1.71,3.03c-0.6,0.31-1.22,0.47-1.86,0.47s-1.13-0.1-1.45-0.3
			c-0.33-0.2-0.58-0.44-0.75-0.73s-0.32-0.64-0.45-1.07c-0.13-0.43-0.22-0.83-0.28-1.2c-0.31-2.08-1.4-6.44-3.25-13.07
			c-3.59-12.76-5.88-22.37-6.88-28.84c-0.06-0.2-0.09-0.47-0.11-0.81c-0.01-0.34-0.04-0.63-0.06-0.85
			c-0.03-0.63-0.19-1.14-0.47-1.54c0.03-1.2-0.22-2.73-0.75-4.59c-0.53-1.87-0.82-2.98-0.88-3.35v55.37h-3.08v-1.62
			c0.11-0.43,0.1-1.32-0.04-2.69s-0.21-2.99-0.21-4.87s-0.19-6.21-0.56-12.99c-0.37-6.78-0.55-10.92-0.55-12.43V392.7l0.6-16.06
			c0-2.16,0.16-3.38,0.47-3.63c0.74-0.57,1.51-0.85,2.31-0.85c0.8,0,1.41,0.11,1.84,0.34c1,0.54,1.5,1.3,1.5,2.26
			c0,0.97,0.11,1.93,0.34,2.88c0.23,0.95,0.56,2.02,0.98,3.2c0.43,1.18,0.73,2.09,0.9,2.71c0.17,0.63,0.32,1.35,0.45,2.18
			c0.13,0.83,0.22,1.57,0.28,2.22c0.2,2.19,0.45,4.09,0.75,5.68c0.3,1.6,0.88,3.97,1.73,7.11c0.85,3.15,1.67,5.93,2.43,8.35
			c1.94,6.21,3.03,11.78,3.29,16.71c0.46,0.85,0.74,1.89,0.85,3.12l0.26-30.5v-25.89c0.34-1.45,1.3-2.18,2.88-2.18
			s2.37,1.14,2.37,3.42v0.51C690.96,375.06,690.77,375.91,690.77,376.85z"/>
		<path d="M698.5,437.52c0-1.57,0.66-2.35,1.96-2.35c0.66,0,1.52,0.22,2.58,0.66c1.07,0.44,1.99,0.66,2.78,0.66s1.63-0.5,2.54-1.5
			c0.91-1,1.62-2.24,2.14-3.72c1.05-2.99,1.58-5.71,1.58-8.16c0-2.45-0.43-5.07-1.28-7.86c-0.85-2.79-1.9-5.41-3.14-7.86
			c-1.24-2.45-2.47-4.9-3.7-7.35c-2.93-5.87-4.4-11.19-4.4-15.98c0-4.56,1.44-8.13,4.31-10.72c1.54-1.37,3.35-2.05,5.43-2.05
			c1.05,0,2.08,0.29,3.08,0.88c1,0.58,1.69,1.35,2.09,2.29v1.88c-2.45,0-4.09-0.28-4.91-0.85c-1.08,0.11-2.02,0.63-2.82,1.54
			c-1.45,1.71-2.18,3.68-2.18,5.92s0.33,4.54,0.98,6.92c0.65,2.38,1.44,4.61,2.35,6.71c0.91,2.09,1.83,4.04,2.76,5.83
			c0.92,1.79,1.72,3.26,2.37,4.4c0.66,1.14,0.98,1.74,0.98,1.79v0.68c0.2,0.74,0.54,1.91,1.03,3.5c0.48,1.6,0.87,2.86,1.15,3.8
			c0.71,2.56,1.07,4.88,1.07,6.96s-0.25,4.06-0.75,5.94c-0.5,1.88-1.21,3.65-2.14,5.32s-2.18,3.03-3.76,4.08s-3.05,1.58-4.42,1.58
			s-2.52-0.07-3.46-0.21c-0.94-0.14-1.88-0.46-2.82-0.94C698.97,438.83,698.5,438.23,698.5,437.52z"/>
	</g>
</g>
</svg>
